Coordinates
version=1
nRows=22
nColumns=24
inDegrees=yes

Units are S.I. units (second, meters, Newtons, ...)
Angles are in degrees.

endheader
time	pelvis_tilt	pelvis_list	pelvis_rotation	pelvis_tx	pelvis_ty	pelvis_tz	hip_flexion_r	hip_adduction_r	hip_rotation_r	knee_angle_r	ankle_angle_r	subtalar_angle_r	mtp_angle_r	hip_flexion_l	hip_adduction_l	hip_rotation_l	knee_angle_l	ankle_angle_l	subtalar_angle_l	mtp_angle_l	lumbar_extension	lumbar_bending	lumbar_rotation
      4.34500000	    -10.16955070	     -2.14515513	     -2.65828802	     -1.49375180	     -0.00310643	     -0.62252738	      6.25287374	      6.01017086	     -5.99848760	     -7.09913223	      4.38518167	     -7.01068396	      5.46814231	     33.80406271	     -7.67317935	    -17.82025900	    -48.01101647	     -0.82600959	    -14.17841112	      0.13622181	      6.59205030	      4.89479385	      0.91085445
      4.35000000	    -10.27876542	     -2.11006705	     -2.77797038	     -1.48909700	     -0.00354511	     -0.62219134	      6.02015594	      5.99470353	     -5.95511994	     -7.02795612	      4.61200028	     -6.85002872	      5.58317112	     34.06378286	     -7.63913231	    -18.27086638	    -46.49725181	     -0.56117617	    -14.02715661	     -0.14358594	      6.62761751	      4.83850739	      1.15650671
      4.35500000	    -10.34532307	     -2.07423213	     -2.85253186	     -1.48444596	     -0.00393200	     -0.62194990	      5.75034095	      5.96307351	     -6.00854651	     -6.96975981	      4.80501564	     -6.64961645	      5.74617111	     34.25254537	     -7.57041623	    -18.71476666	    -44.91722377	     -0.26116131	    -13.74467559	     -0.55437233	      6.61427454	      4.78121946	      1.29979668
      4.36000000	    -10.46362805	     -2.06007587	     -2.87994877	     -1.47975577	     -0.00446249	     -0.62178748	      5.52143475	      5.95373187	     -6.04664508	     -6.89189687	      5.03711732	     -6.52270696	      5.88242018	     34.48675317	     -7.47701970	    -19.07516050	    -43.29064452	      0.02462653	    -13.41982826	     -0.79910083	      6.66830726	      4.73791971	      1.42183152
      4.36500000	    -10.53849637	     -2.04882113	     -2.91965482	     -1.47510293	     -0.00492920	     -0.62162153	      5.26867515	      5.94411235	     -6.16581966	     -6.84686160	      5.23480974	     -6.34592876	      6.06289016	     34.63658305	     -7.39650070	    -19.51030312	    -41.59814883	      0.29652419	    -12.99386014	     -1.07154329	      6.66229649	      4.69476264	      1.52175764
      4.37000000	    -10.66924418	     -2.04768706	     -2.94806610	     -1.47041228	     -0.00548966	     -0.62152275	      5.05942213	      5.94294057	     -6.20469679	     -6.78074082	      5.43814569	     -6.19821072	      6.18246737	     34.82000416	     -7.29301392	    -19.87717041	    -39.84905067	      0.52375379	    -12.50020847	     -1.14174272	      6.72489842	      4.66904376	      1.62745851
      4.37500000	    -10.77231424	     -2.04085774	     -2.98371893	     -1.46570890	     -0.00602543	     -0.62140563	      4.82781177	      5.93590668	     -6.28876179	     -6.72727284	      5.64504932	     -6.02538996	      6.30533085	     34.93216638	     -7.18592861	    -20.29265082	    -38.03902962	      0.73404701	    -11.89508171	     -1.11856865	      6.75582411	      4.63287761	      1.72678943
      4.38000000	    -10.85755396	     -2.03157597	     -3.02124487	     -1.46099701	     -0.00654668	     -0.62130229	      4.58190994	      5.92369517	     -6.40768438	     -6.68214884	      5.84681278	     -5.83049039	      6.44591763	     34.99113846	     -7.06841133	    -20.73063809	    -36.17904103	      0.91490348	    -11.18552762	     -0.97145026	      6.76317299	      4.59313224	      1.82483395
      4.38500000	    -10.94124595	     -2.02620655	     -3.05292983	     -1.45624418	     -0.00708652	     -0.62122988	      4.32968777	      5.91171772	     -6.52231427	     -6.63588762	      6.05187658	     -5.62177320	      6.59926072	     35.01881579	     -6.94028766	    -21.17326598	    -34.28016294	      1.08144256	    -10.38360971	     -0.67274897	      6.77755589	      4.55542106	      1.91334368
      4.39000000	    -11.01055679	     -2.02096326	     -3.08942227	     -1.45147199	     -0.00761931	     -0.62117798	      4.06028091	      5.89668757	     -6.65240812	     -6.58704755	      6.24700121	     -5.39231308	      6.77119598	     35.00439928	     -6.80783978	    -21.63973175	    -32.35480422	      1.22230779	     -9.47900552	     -0.18414557	      6.77485474	      4.52028928	      2.00020673
      4.39500000	    -11.07199377	     -2.02137614	     -3.11486967	     -1.44666462	     -0.00815974	     -0.62112923	      3.78035941	      5.88641844	     -6.79288421	     -6.54083973	      6.43137435	     -5.16581556	      6.95630548	     34.96513274	     -6.66954050	    -22.10797412	    -30.41897710	      1.31828573	     -8.50610408	      0.49504734	      6.77068987	      4.48121381	      2.07273248
      4.40000000	    -11.02435367	     -1.97459071	     -3.12142731	     -1.44179117	     -0.00857671	     -0.62118165	      3.36712680	      5.80515723	     -6.96869349	     -6.45787944	      6.59895518	     -4.91918193	      7.47336925	     34.73675778	     -6.42399483	    -22.49649041	    -28.31096238	      0.90552361	     -7.85915471	      2.70224426	      6.65062192	      4.39243511	      2.14670109
      4.40500000	    -11.18923087	     -2.00890326	     -3.15046392	     -1.43696330	     -0.00925088	     -0.62115605	      3.21062973	      5.83880918	     -7.09509363	     -6.43985939	      6.74132109	     -4.75805892	      7.53114797	     34.81868646	     -6.32284485	    -22.97108195	    -26.46879687	      1.09022435	     -6.67608988	      3.19901188	      6.75939159	      4.39133091	      2.18975738
      4.41000000	    -11.07893569	     -1.91877151	     -3.16583660	     -1.43201960	     -0.00956243	     -0.62121216	      2.73415118	      5.70403233	     -7.26761627	     -6.37824634	      6.91746528	     -4.47395933	      7.84228838	     34.48720248	     -6.02643015	    -23.40576976	    -24.38597666	      0.67838136	     -5.94670680	      5.45011067	      6.58090948	      4.25307174	      2.28003028
      4.41500000	    -11.17505322	     -1.88265313	     -3.22195254	     -1.42709919	     -0.01011099	     -0.62124278	      2.50932211	      5.64202671	     -7.36593843	     -6.38068624	      7.09308173	     -4.21246858	      7.90882412	     34.45400055	     -5.83976424	    -23.88453414	    -22.58429917	      0.87086000	     -4.79264778	      6.01176548	      6.62639165	      4.18589115	      2.37830762
      4.42000000	    -11.07122665	     -1.75047228	     -3.18760016	     -1.42208251	     -0.01036752	     -0.62139402	      2.04380050	      5.44567199	     -7.58961867	     -6.33149241	      7.25954749	     -3.85414982	      8.22909452	     34.14376206	     -5.46140822	    -24.23852161	    -20.62507076	      0.43971479	     -4.13528525	      8.22406086	      6.46985931	      3.99439599	      2.38382056
      4.42500000	    -11.09530154	     -1.60761631	     -3.24979186	     -1.41714183	     -0.01073178	     -0.62145522	      1.76365989	      5.24799959	     -7.65501656	     -6.37123781	      7.45722498	     -3.52740702	      8.29611779	     34.02418540	     -5.15289462	    -24.67322432	    -18.93803090	      0.55981251	     -3.15879651	      8.71849344	      6.43834673	      3.81151188	      2.50438590
      4.43000000	    -11.04595521	     -1.46457895	     -3.18136813	     -1.41213564	     -0.01102383	     -0.62167724	      1.39043958	      5.03192739	     -7.93246302	     -6.38459371	      7.62008544	     -3.13678921	      8.55736234	     33.84513679	     -4.75873416	    -24.93538629	    -17.27095107	      0.31640942	     -2.55017955	     10.31090720	      6.34411978	      3.60232604	      2.46665050
      4.43500000	    -11.05502925	     -1.30301591	     -3.20681009	     -1.40718471	     -0.01136864	     -0.62181262	      1.11352519	      4.80168017	     -8.00343751	     -6.46338948	      7.80641964	     -2.81859677	      8.58909897	     33.76617118	     -4.41515239	    -25.21085904	    -15.84697163	      0.43437779	     -1.79447982	     10.56533493	      6.30181556	      3.39086210	      2.54496182
      4.44000000	    -11.02445646	     -1.15019731	     -3.17057893	     -1.40216977	     -0.01170131	     -0.62203868	      0.79488938	      4.57007467	     -8.19212777	     -6.55438581	      7.99331120	     -2.43855633	      8.61928573	     33.67012668	     -4.04526683	    -25.35317494	    -14.54715734	      0.50465237	     -1.18899675	     10.88734564	      6.23003897	      3.17526607	      2.55144266
      4.44500000	    -11.00818711	     -1.00737905	     -3.13653340	     -1.39714578	     -0.01207612	     -0.62228137	      0.50924656	      4.34579909	     -8.35815830	     -6.68264886	      8.18125686	     -2.07114717	      8.65151234	     33.61294513	     -3.69471219	    -25.39912318	    -13.39217505	      0.53612734	     -0.70865585	     11.17739032	      6.17562841	      2.97027058	      2.55534707
      4.45000000	    -11.00260735	     -0.87181669	     -3.09690913	     -1.39208027	     -0.01248964	     -0.62251684	      0.24091825	      4.13046652	     -8.49486014	     -6.82952018	      8.35744049	     -1.74535149	      8.66605849	     33.58881884	     -3.36181541	    -25.34380435	    -12.39274665	      0.53937196	     -0.30971868	     11.38478022	      6.13569222	      2.76561476	      2.54566849
